<svg
  xmlns="http://www.w3.org/2000/svg"
  width="24"
  height="24"
  viewBox="0 0 24 24"
  fill="white"
>
  <path d="M12 0.297C5.37 0.297 0 5.667 0 12.297c0 5.292 3.438 9.787 8.205 11.387.6.111.82-.261.82-.577 0-.285-.01-1.04-.015-2.04-3.338.724-4.042-1.614-4.042-1.614-.546-1.387-1.333-1.756-1.333-1.756-1.09-.745.083-.729.083-.729 1.205.085 1.84 1.237 1.84 1.237 1.07 1.834 2.807 1.304 3.492.997.108-.776.418-1.305.762-1.605-2.665-.304-5.467-1.332-5.467-5.931 0-1.31.468-2.381 1.235-3.221-.123-.303-.535-1.527.117-3.176 0 0 1.008-.322 3.3 1.23a11.47 11.47 0 0 1 3.003-.403c1.018.005 2.042.138 3.003.403 2.291-1.552 3.297-1.23 3.297-1.23.653 1.649.241 2.873.118 3.176.77.84 1.233 1.911 1.233 3.221 0 4.61-2.807 5.624-5.48 5.921.43.372.823 1.103.823 2.222 0 1.604-.014 2.896-.014 3.286 0 .319.216.694.825.576C20.565 22.08 24 17.586 24 12.297 24 5.667 18.627.297 12 .297z"/>
</svg>
